<?xml version="1.0" encoding="utf-8"?>
<!-- Generator: Adobe Illustrator 15.1.0, SVG Export Plug-In . SVG Version: 6.00 Build 0)  -->
<!DOCTYPE svg PUBLIC "-//W3C//DTD SVG 1.1//EN" "http://www.w3.org/Graphics/SVG/1.1/DTD/svg11.dtd">
<svg version="1.1" id="Layer_1" xmlns="http://www.w3.org/2000/svg" xmlns:xlink="http://www.w3.org/1999/xlink" x="0px" y="0px"
	 width="592px" height="499px" viewBox="0 0 592 499" enable-background="new 0 0 592 499" xml:space="preserve">
<g>
	<path fill-rule="evenodd" clip-rule="evenodd" fill="#A39161" d="M299.502,321.861c0,0.275-0.146,0.508-0.511,0.593
		c-0.354,0.093-1.779,0.562-4.024,0.562c-4.074,0-6.158-1.425-6.158-5.518v-15.287c0-0.511,0.15-0.833,0.659-0.918l4.444-0.729
		c0.585-0.048,0.833,0.146,0.833,0.582v5.01h3.705c0.313,0,0.541,0.202,0.541,0.479v3.205c0,0.287-0.228,0.462-0.541,0.462h-3.705
		v6.78c0,1,0.194,1.841,1.778,1.841c0.935,0,1.538-0.139,1.948-0.202c0.423,0,0.483,0.202,0.558,0.369l0.434,2.473L299.502,321.861z
		 M548.541,308.721c-1.935,0-2.152,1.174-2.152,2.853c0,1.628,0.218,2.806,2.152,2.806c1.937,0,2.15-1.178,2.15-2.806
		C550.691,309.895,550.478,308.721,548.541,308.721 M549.085,323.628H547.9c-0.813,0-2.045,0.086-2.045,1.438
		c0,1.349,0.896,1.82,3.002,1.82c2.056,0,2.702-0.546,2.702-1.82C551.56,323.776,550.533,323.628,549.085,323.628 M558.627,309.063
		c0,0.14-0.051,0.26-0.271,0.418c-0.675,0.48-1.447,0.693-2.221,0.693c-0.5,0-0.645-0.12-1.333-0.251
		c0.74,0.612,1.268,1.51,1.268,2.612c0,3.595-3.093,4.824-6.829,4.824l-1.681,0.019c-0.809,0-1.208,0.325-1.208,1.12
		c0,0.953,0.689,1.046,2.407,1.046h2.191c2.754,0,6.199,0.574,6.199,4.751c0,4.123-3.602,5.649-8.488,5.649
		c-5.461,0-8.439-0.814-8.439-3.909c0-3.073,2.612-3.073,3.555-3.305v-0.629c-1.447-0.278-2.999-0.158-2.999-2.558
		c0-2.368,1.815-2.406,3.93-2.693c-0.734-0.186-4.051-0.537-4.051-4.897c0-4.623,2.831-6.204,7.729-6.204
		c2.128,0,2.898,0.221,4.204,0.565c0.352,0.09,0.762,0.128,1.249,0.128c0.505,0,1.059-0.065,1.519-0.186
		c0.584-0.167,1.186-0.435,1.634-0.702c0.123-0.029,0.257-0.093,0.352-0.093c0.159,0,0.301,0.128,0.361,0.407l0.872,2.898
		L558.627,309.063z M535.959,322.768h-4.899c-0.339,0-0.557-0.186-0.557-0.473v-10.629c0-1.612-0.667-2.103-1.767-2.103
		c-0.858,0-1.954,0.166-1.954,0.166v12.565c0,0.287-0.232,0.473-0.537,0.473h-4.907c-0.339,0-0.53-0.186-0.53-0.473v-14.121
		c0-1.13,1.084-1.444,3.096-1.815c1.546-0.334,3.734-0.609,5.73-0.609c4.098,0,6.83,0.852,6.83,5.065v11.48
		C536.464,322.582,536.268,322.768,535.959,322.768 M514.896,322.768h-4.859c-0.304,0-0.532-0.186-0.532-0.473v-15.694
		c0-0.286,0.229-0.473,0.532-0.473h4.859c0.325,0,0.541,0.187,0.541,0.473v15.694C515.437,322.582,515.221,322.768,514.896,322.768
		 M501.534,322.257c-0.098,0.29-0.265,0.511-0.57,0.511h-8.119c-0.292,0-0.497-0.221-0.558-0.511l-3.991-15.175
		c-0.022-0.64,0.232-0.926,0.631-0.926h4.546c0.438,0,0.713,0.064,0.807,0.592l2.3,12.417h0.872l2.051-12.381
		c0.088-0.527,0.38-0.628,0.813-0.628h4.497c0.435,0,0.728,0.286,0.728,0.675L501.534,322.257z M483.797,322.768h-4.857
		c-0.314,0-0.532-0.186-0.532-0.473v-15.694c0-0.286,0.218-0.473,0.532-0.473h4.857c0.328,0,0.546,0.187,0.546,0.473v15.694
		C484.343,322.582,484.125,322.768,483.797,322.768 M464.953,308.721c-1.935,0-2.14,1.174-2.14,2.853
		c0,1.628,0.205,2.806,2.14,2.806c1.937,0,2.163-1.178,2.163-2.806C467.116,309.895,466.89,308.721,464.953,308.721
		 M465.479,323.628h-1.154c-0.826,0-2.047,0.086-2.047,1.438c0,1.349,0.868,1.82,3,1.82c2.046,0,2.706-0.546,2.706-1.82
		C467.984,323.776,466.958,323.628,465.479,323.628 M475.047,309.063c0,0.14-0.074,0.26-0.279,0.418
		c-0.667,0.48-1.462,0.693-2.221,0.693c-0.486,0-0.62-0.12-1.333-0.251c0.727,0.612,1.281,1.51,1.281,2.612
		c0,3.595-3.119,4.824-6.843,4.824l-1.691,0.019c-0.814,0-1.199,0.325-1.199,1.12c0,0.953,0.699,1.046,2.417,1.046h2.178
		c2.755,0,6.203,0.574,6.203,4.751c0,4.123-3.615,5.649-8.462,5.649c-5.502,0-8.464-0.814-8.464-3.909
		c0-3.073,2.623-3.073,3.568-3.305v-0.629c-1.462-0.278-3.027-0.158-3.027-2.558c0-2.368,1.841-2.406,3.953-2.693
		c-0.76-0.186-4.059-0.537-4.059-4.897c0-4.623,2.818-6.204,7.712-6.204c2.154,0,2.912,0.221,4.21,0.565
		c0.373,0.09,0.786,0.128,1.253,0.128c0.497,0,1.065-0.065,1.538-0.186c0.567-0.167,1.186-0.435,1.62-0.702
		c0.134-0.029,0.254-0.093,0.36-0.093c0.158,0,0.303,0.128,0.377,0.407l0.833,2.898L475.047,309.063z M443.382,302.793
		c-0.068,0.29-0.084,0.464-0.36,0.464c-0.473-0.074-1.38-0.193-2.044-0.193c-0.702,0-1.146,0.081-1.406,0.342
		c-0.287,0.224-0.386,0.592-0.386,1.204v1.547h3.715c0.31,0,0.541,0.202,0.541,0.479v3.205c0,0.287-0.231,0.462-0.541,0.462h-3.715
		v11.992c0,0.287-0.201,0.473-0.495,0.473h-4.897c-0.278,0-0.565-0.186-0.565-0.473v-11.992h-2.406
		c-0.325,0-0.546-0.175-0.546-0.462v-3.205c0-0.277,0.221-0.479,0.546-0.479h2.406v-1.872c0-3.499,1.824-5.313,5.778-5.313
		c2.576,0,4.084,0.453,4.475,0.582c0.289,0.056,0.313,0.279,0.313,0.454L443.382,302.793z M419.468,309.609
		c-2.2,0-2.273,1.297-2.273,4.871c0,3.546,0.073,4.835,2.273,4.835c2.177,0,2.297-1.289,2.297-4.835
		C421.765,310.906,421.645,309.609,419.468,309.609 M419.468,323.194c-7.363,0-8.33-3.816-8.33-8.714
		c0-4.935,0.967-8.731,8.33-8.731c7.362,0,8.343,3.797,8.343,8.731C427.811,319.378,426.83,323.194,419.468,323.194
		 M396.559,321.861c0,0.275-0.109,0.508-0.495,0.593c-0.353,0.093-1.792,0.562-4.028,0.562c-4.087,0-6.161-1.425-6.161-5.518
		v-15.287c0-0.511,0.142-0.833,0.661-0.918l4.464-0.729c0.565-0.048,0.82,0.146,0.82,0.582v5.01h3.697
		c0.315,0,0.547,0.202,0.547,0.479v3.205c0,0.287-0.231,0.462-0.547,0.462h-3.697v6.78c0,1,0.183,1.841,1.777,1.841
		c0.954,0,1.535-0.139,1.956-0.202c0.413,0,0.473,0.202,0.543,0.369l0.436,2.473L396.559,321.861z M382.498,310.054
		c-1.754,0-3.347,0.205-3.347,0.205v12.036c0,0.287-0.211,0.473-0.533,0.473h-4.898c-0.325,0-0.543-0.186-0.543-0.473v-14.121
		c0-1.13,1.111-1.444,3.108-1.815c1.56-0.334,3.639-0.536,5.62-0.536h0.593c0.472,0,0.639,0.167,0.639,0.713v2.76
		C383.137,309.674,383.137,310.054,382.498,310.054 M332.819,312.906c0-0.573-0.084-1-0.146-1.426
		c-0.24-1.465-0.967-1.935-2.101-1.935c-1.719,0-2.265,0.628-2.409,1.74c-0.095,0.62-0.095,1.249-0.095,2.112h4.726L332.819,312.906
		z M338.563,315.712c0,0.508-0.111,1.038-0.92,1.038h-9.574c0,1.12,0.434,1.88,1.521,2.259c0.653,0.249,1.612,0.369,2.844,0.369
		c1.899,0,3.699-0.593,4.194-0.713c0.325,0,0.565,0.213,0.691,0.574l0.467,2.018c0.013,0.539-0.175,0.752-0.386,0.826
		c-0.883,0.371-3.067,1.111-6.054,1.111c-6.169,0-9.163-2.038-9.163-8.583c0-6.584,2.186-8.862,8.253-8.862
		c3.035,0,5.068,0.609,6.303,1.868c1.353,1.383,1.824,3.538,1.824,6.576V315.712z M362.634,315.1l-2.527,0.418
		c-1.052,0.155-1.859,0.427-1.859,2.093c0,1.751,1.366,2.026,2.295,2.026c1.064,0,2.092-0.259,2.092-0.259V315.1z M365.194,322.768
		c-1.304,0.287-2.768,0.427-4.713,0.427c-4.072,0-7.931-0.647-7.931-5.529c0-3.953,2.754-4.647,4.666-4.926l5.344-0.833v-0.565
		c0-0.76-0.134-1.193-0.606-1.446c-0.369-0.221-1.12-0.331-2.005-0.331c-1.898,0-4.412,0.695-5.065,0.89
		c-0.434,0.036-0.568-0.047-0.606-0.251l-0.54-2.527c-0.039-0.511,0.142-0.631,0.347-0.724c0.592-0.222,3.689-1.202,7.255-1.202
		c2.189,0,3.795,0.314,4.92,0.942c1.538,0.871,2.178,2.27,2.178,4.123v8.602C368.437,321.924,367.325,322.257,365.194,322.768
		 M317.607,322.768h-4.931c-0.328,0-0.519-0.186-0.519-0.473v-10.973c0-1.082-0.328-1.776-1.561-1.776
		c-1.005,0-2.221,0.147-2.221,0.147v12.602c0,0.287-0.196,0.473-0.524,0.473h-4.92c-0.316,0-0.529-0.186-0.529-0.473v-21.73
		c0-0.52,0.157-0.817,0.663-0.918l4.447-0.676c0.579-0.019,0.863,0.167,0.863,0.602v4.692l-0.379,2.05
		c1.4-0.325,2.854-0.565,4.351-0.565c3.413,0,5.746,0.942,5.746,4.51v12.036C318.095,322.582,317.887,322.768,317.607,322.768"/>
	<path fill-rule="evenodd" clip-rule="evenodd" fill="#3B3092" d="M334.332,120.495l10.37-3.197
		c2.011-0.628,3.251,0.547,2.806,2.585l-2.368,10.594c3.842,0.063,8.125-1.817,11.981-6.002c6.604-7.158,8.51-19.289,4.653-22.863
		c-3.844-3.565-15.788-0.721-22.415,6.445C335.49,112.233,333.942,116.64,334.332,120.495 M253.956,109.188l7.398-7.975
		c1.404-1.527,3.098-1.139,3.699,0.845l3.265,10.361c3.36-1.863,6.121-5.63,7.375-11.195c2.153-9.509-2.272-20.948-7.384-22.122
		c-5.141-1.159-14.064,7.286-16.202,16.787C250.834,101.446,251.705,106.038,253.956,109.188 M178.708,139.568l2.431-10.594
		c0.459-2.035,2.09-2.535,3.625-1.136l8.007,7.359c1.967-3.314,2.475-7.952,0.781-13.388c-2.898-9.308-12.435-17.012-17.47-15.474
		c-5.013,1.574-8.523,13.334-5.619,22.65C172.143,134.43,175.189,137.957,178.708,139.568 M128.742,203.51l-3.204-10.4
		c-0.628-1.972,0.541-3.232,2.573-2.787l10.605,2.38c0.06-3.86-1.817-8.149-5.996-12.001c-7.157-6.611-19.298-8.51-22.876-4.667
		c-3.558,3.872-0.7,15.815,6.452,22.426C120.481,202.343,124.88,203.879,128.742,203.51 M117.427,283.867l-7.961-7.391
		c-1.532-1.407-1.147-3.1,0.839-3.704l10.357-3.267c-1.875-3.371-5.634-6.131-11.196-7.382c-9.498-2.147-20.964,2.27-22.119,7.397
		c-1.172,5.13,7.278,14.039,16.793,16.197C109.699,286.97,114.277,286.099,117.427,283.867 M147.808,359.113l-10.594-2.427
		c-2.033-0.462-2.536-2.082-1.123-3.62l7.338-8.01c-3.311-1.972-7.942-2.482-13.381-0.786c-9.296,2.888-17.011,12.443-15.454,17.453
		c1.549,5.029,13.324,8.521,22.636,5.63C142.677,365.68,146.213,362.631,147.808,359.113 M211.763,409.081l-10.4,3.213
		c-1.995,0.619-3.251-0.547-2.792-2.585l2.358-10.61c-3.858-0.058-8.128,1.824-11.98,6.019c-6.63,7.157-8.512,19.27-4.665,22.862
		c3.851,3.565,15.798,0.712,22.427-6.456C210.563,417.35,212.123,412.94,211.763,409.081"/>
	<path fill-rule="evenodd" clip-rule="evenodd" fill="#009EC2" d="M284.982,154.901l6.19-4.174c1.156-0.817,2.212-0.297,2.319,1.129
		l0.593,7.436c2.535-0.741,4.958-2.841,6.646-6.352c2.904-6.029,1.719-14.361-1.521-15.918c-3.251-1.574-10.507,2.685-13.419,8.714
		C284.097,149.255,283.963,152.449,284.982,154.901 M228.421,163.655l3.254-6.715c0.639-1.287,1.803-1.361,2.598-0.186l4.218,6.141
		c1.838-1.899,2.904-4.937,2.612-8.827c-0.492-6.665-5.704-13.296-9.308-13.028c-3.592,0.268-7.75,7.595-7.231,14.26
		C224.832,159.2,226.332,162.035,228.421,163.655 M183.857,199.5l-0.541-7.436c-0.126-1.426,0.847-2.074,2.126-1.462l6.736,3.213
		c0.623-2.565,0.033-5.715-2.166-8.947c-3.77-5.526-11.572-8.666-14.544-6.639c-2.986,2.02-2.934,10.455,0.833,15.993
		C178.505,197.442,181.21,199.146,183.857,199.5 M163.133,252.847l-4.165-6.168c-0.826-1.186-0.293-2.241,1.12-2.341l7.424-0.585
		c-0.726-2.546-2.805-4.972-6.324-6.666c-6.045-2.898-14.375-1.716-15.946,1.527c-1.559,3.251,2.697,10.509,8.715,13.417
		C157.489,253.734,160.694,253.865,163.133,252.847 M171.889,309.396l-6.71-3.248c-1.281-0.631-1.365-1.805-0.194-2.622l6.139-4.205
		c-1.898-1.833-4.917-2.887-8.824-2.592c-6.657,0.491-13.274,5.703-13.02,9.28c0.268,3.61,7.595,7.75,14.258,7.258
		C167.439,312.979,170.269,311.5,171.889,309.396 M207.747,353.981l-7.444,0.539c-1.415,0.12-2.085-0.872-1.478-2.158l3.229-6.723
		c-2.576-0.629-5.704-0.028-8.947,2.169c-5.512,3.759-8.665,11.583-6.647,14.563c2.041,2.973,10.469,2.918,15.99-0.86
		C205.682,359.325,207.387,356.612,207.747,353.981 M261.075,374.689l-6.165,4.174c-1.186,0.798-2.246,0.298-2.345-1.128
		l-0.592-7.428c-2.513,0.724-4.958,2.825-6.647,6.344c-2.89,6.021-1.732,14.353,1.522,15.926c3.237,1.576,10.515-2.713,13.419-8.73
		C261.96,380.319,262.094,377.143,261.075,374.689"/>
	<path fill="#A39161" d="M207.545,431.006c-13.001,15.039-42.62,20.104-42.62,20.104c12.463-14.428,3.278-28.762,14.941-45.382
		c7.908-11.279,21.136-12.481,29.105-5.564C216.935,407.051,217.614,419.349,207.545,431.006 M168.542,404.458
		c-18.295,24.308-5.297,46.283-24.666,67.239c0,0,44.625-6.095,64.854-28.004c15.667-16.936,15.269-35.4,3.672-46.133
		C200.783,386.838,180.932,387.95,168.542,404.458 M133.214,376.003c-18.779,6.51-46.957-3.906-46.957-3.906
		c17.989-6.251,17.229-23.262,35.628-31.837c12.488-5.815,24.529-0.231,27.98,9.731
		C153.332,359.964,147.758,370.939,133.214,376.003 M154.129,349.463c-4.691-15.12-22.429-24.063-41.434-15.973
		c-27.985,11.908-27.698,37.43-54.972,45.893c0,0,41.712,17.049,70.158,8.204C149.934,380.743,158.809,364.549,154.129,349.463
		 M271.948,180.887c-0.121,6.417-4.909,10.316-9.783,9.723c-4.885-0.585-8.341-5.158-7.496-12.269
		c1.101-9.195,11.222-18.855,11.222-18.855C264.837,168.294,272.114,171.441,271.948,180.887 M250.121,174.497
		c-1.702,11.168,3.511,18.577,11.16,19.744c7.657,1.174,15.405-4.716,15.926-14.818c0.774-14.881-10.534-20.243-8.403-34.066
		C268.803,145.357,252.336,160.062,250.121,174.497 M246.629,88.103c3.737-19.53,26.865-38.735,26.865-38.735
		c-3.592,18.733,11.534,26.556,9.755,46.791c-1.21,13.722-12.053,21.352-22.414,19.372
		C250.474,113.539,243.742,103.232,246.629,88.103 M259.168,119.483c15.413,3.492,32.05-7.397,34.525-27.9
		c3.691-30.197-18.571-42.707-12.255-70.56c0,0-35.604,27.605-42.168,56.672C234.167,100.194,243.763,116.003,259.168,119.483
		 M306.571,150.717c-2.937,8.982-11.353,12.419-17.975,9.493c-6.631-2.926-9.529-10.862-5.259-20.522
		c5.51-12.49,23.936-21.751,23.936-21.751C301.977,129.9,310.886,137.476,306.571,150.717 M279.466,131.864
		c-7.024,14.547-2.986,26.835,6.988,31.632c9.977,4.817,23.032,0,27.962-13.594c7.257-20.01-5.972-32.038,2.732-50.041
		C317.149,99.861,288.522,113.067,279.466,131.864 M291.375,351.242c-1.088,9.204-11.204,18.871-11.204,18.871
		c1.047-8.834-6.231-11.954-6.048-21.409c0.107-6.417,4.896-10.304,9.756-9.742C288.773,339.574,292.235,344.12,291.375,351.242
		 M284.771,335.343c-7.66-1.186-15.399,4.724-15.929,14.814c-0.765,14.891,10.542,20.235,8.403,34.077
		c0,0,16.462-14.702,18.678-29.141C297.649,343.907,292.426,336.509,284.771,335.343 M262.72,389.922
		c-5.511,12.463-23.923,21.725-23.923,21.725c5.283-11.955-3.603-19.53,0.699-32.782c2.912-8.983,11.338-12.397,17.967-9.491
		C264.085,372.299,267.003,380.235,262.72,389.922 M259.613,366.087c-9.973-4.816-23.029-0.011-27.965,13.574
		c-7.251,20.03,5.95,32.067-2.741,50.058c0,0,28.627-13.213,37.697-32C273.614,383.18,269.563,370.893,259.613,366.087
		 M366.213,123.855c-7.936,11.288-21.119,12.473-29.089,5.575c-7.99-6.89-8.668-19.197,1.401-30.856
		c12.998-15.039,42.614-20.103,42.614-20.103C368.69,92.889,377.854,107.234,366.213,123.855 M337.351,85.879
		c-15.666,16.937-15.271,35.41-3.671,46.143c11.63,10.731,31.455,9.622,43.874-6.9c18.277-24.316,5.258-46.272,24.641-67.236
		C402.194,57.886,357.563,63.989,337.351,85.879 M132.103,171.626c11.28,7.909,12.474,21.123,5.562,29.105
		c-6.895,7.983-19.191,8.649-30.84-1.418c-15.058-13.009-20.122-42.641-20.122-42.641
		C101.129,169.146,115.477,159.977,132.103,171.626 M94.138,200.491c16.926,15.667,35.399,15.26,46.124,3.647
		c10.723-11.602,9.611-31.446-6.889-43.855c-24.316-18.278-46.273-5.269-67.236-24.649
		C66.137,135.634,72.229,180.256,94.138,200.491 M201.558,367.993c-11.024,8.049-31.603,6.863-31.603,6.863
		c10.543-7.724,6.639-18.717,16.987-28.032c7.037-6.316,16.041-5.091,20.325,0.752C211.544,353.427,210.083,361.751,201.558,367.993
		 M179.773,343.593c-16.326,13.705-10.895,30.733-27.409,41.975c0,0,31.397,2.872,48.638-8.859
		c13.348-9.102,15.997-21.762,9.755-30.919C204.534,336.649,190.82,334.297,179.773,343.593 M226.559,359.558
		c5.311-7.092,0.593-13.454,5.47-21.549c3.297-5.499,9.389-6.49,13.32-3.538c3.931,2.938,4.644,8.622,0.352,14.364
		C240.149,356.26,226.559,359.558,226.559,359.558 M247.719,354.438c7.084-8.809,6.25-17.828,0.202-22.669
		c-6.032-4.854-15.703-3.631-21.204,4.859c-8.097,12.512-0.992,22.8-9.748,33.717C216.969,370.346,238.579,365.846,247.719,354.438
		 M207.326,323.907c-8.501,3.646-21.945-0.279-21.945-0.279c8.163-3.479,7.253-11.353,15.523-15.944
		c5.621-3.094,11.378-0.899,13.312,3.603C216.15,315.824,213.923,321.082,207.326,323.907 M217.794,310.24
		c-2.791-7.223-11.787-10.982-20.783-6.382c-13.283,6.777-12.269,19.243-25.327,24.315c0,0,20.989,6.891,34.601,1.604
		C216.814,325.674,220.601,317.452,217.794,310.24 M158.967,231.26c8.969,2.928,12.416,11.353,9.477,17.975
		c-2.926,6.619-10.856,9.518-20.516,5.259c-12.477-5.518-21.765-23.936-21.765-23.936
		C138.131,235.844,145.701,226.954,158.967,231.26 M108.092,220.677c0,0,13.222,28.632,32.012,37.688
		c14.558,7.018,26.826,2.972,31.626-6.991c4.825-9.982,0.014-23.029-13.588-27.958C138.131,216.158,126.095,229.364,108.092,220.677
		 M190.241,199.019c-5.838,4.277-14.173,2.824-20.409-5.705c-8.051-11.012-6.865-31.596-6.865-31.596
		c7.723,10.556,18.729,6.641,28.039,16.992C197.325,185.739,196.096,194.74,190.241,199.019 M152.245,144.125
		c0,0-2.852,31.391,8.884,48.632c9.08,13.353,21.751,15.992,30.905,9.761c9.128-6.224,11.496-19.929,2.2-31.004
		C180.524,155.227,163.5,160.636,152.245,144.125 M188.987,237.455c-7.411-5.545-10.728-19.139-10.728-19.139
		c7.109,5.324,13.46,0.593,21.557,5.472c5.502,3.305,6.483,9.4,3.533,13.326C200.423,241.048,194.729,241.752,188.987,237.455
		 M206.053,239.687c4.852-6.046,3.631-15.705-4.857-21.204c-12.501-8.103-22.816-0.992-33.719-9.742c0,0,4.51,21.595,15.899,30.733
		C192.2,246.558,201.22,245.725,206.053,239.687 M165.736,78.009c6.251,17.992,23.251,17.232,31.821,35.631
		c5.816,12.493,0.254,24.529-9.709,27.993c-9.974,3.453-20.951-2.111-26.029-16.658C155.298,106.196,165.736,78.009,165.736,78.009
		 M188.356,145.884c15.124-4.685,24.067-22.437,15.984-41.428c-11.908-27.993-37.443-27.706-45.906-54.968
		c0,0-17.033,41.696-8.187,70.154C157.077,141.68,173.282,150.578,188.356,145.884 M157.467,292.794
		c9.25-1.964,16.416,3.612,17.214,10.804c0.787,7.216-4.653,13.688-15.149,14.838c-13.566,1.453-30.79-9.862-30.79-9.862
		C141.725,307.163,143.841,295.673,157.467,292.794 M154.697,325.694c16.118-1.187,24.723-10.835,23.901-21.863
		c-0.819-11.048-11.512-19.956-25.753-17.427c-20.964,3.731-24.783,21.158-44.706,22.658
		C108.14,309.063,133.892,327.232,154.697,325.694 M57.616,264.328c18.715,3.584,26.559-11.539,46.772-9.75
		c13.738,1.194,21.376,12.048,19.382,22.41c-1.984,10.361-12.293,17.093-27.419,14.193
		C76.813,287.451,57.616,264.328,57.616,264.328 M127.737,278.654c3.483-15.418-7.398-32.05-27.914-34.53
		c-30.192-3.678-42.693,18.565-70.561,12.269c0,0,27.605,35.596,56.68,42.169C108.439,303.656,124.232,294.07,127.737,278.654
		 M229.245,120.494c1.412,13.001,12.9,15.11,15.776,28.742c1.973,9.242-3.612,16.426-10.807,17.197
		c-7.196,0.776-13.673-4.642-14.812-15.14C217.939,137.735,229.245,120.494,229.245,120.494 M234.008,170.347
		c11.039-0.805,19.937-11.5,17.41-25.722c-3.724-20.984-21.169-24.8-22.644-44.734c0,0-18.183,25.769-16.637,46.567
		C213.332,162.57,222.971,171.181,234.008,170.347 M198.85,275.652c-0.593,4.882-5.149,8.343-12.26,7.481
		c-9.201-1.101-18.872-11.214-18.872-11.214c8.824,1.066,11.96-6.204,21.412-6.045C195.549,265.995,199.432,270.773,198.85,275.652
		 M153.585,269.014c0,0,14.717,16.473,29.138,18.678c11.182,1.731,18.571-3.491,19.757-11.149
		c1.185-7.668-4.704-15.418-14.812-15.926C172.782,259.837,167.432,271.146,153.585,269.014 M214.202,177.155
		c3.481,8.166,11.354,7.25,15.938,15.52c3.107,5.611,0.916,11.381-3.616,13.307c-4.519,1.934-9.802-0.287-12.608-6.882
		C210.277,190.582,214.202,177.155,214.202,177.155 M208.05,198.035c4.095,10.539,12.318,14.337,19.538,11.531
		c7.217-2.808,10.99-11.788,6.384-20.789c-6.783-13.288-19.248-12.269-24.316-25.316
		C209.656,163.461,202.742,184.433,208.05,198.035"/>
	<path fill="#A39161" d="M275.679,220.464v7.222c0,2.844-2.33,5.166-5.157,5.166l-4.03,0.093h-11.883
		c-5.112,0.426-7.761,3.305-7.761,6.854c0,4.464,3.939,6.937,10.069,9.177c15.151,5.453,18.656,11.769,18.656,19.576
		c0,11.667-11.241,21.073-29.897,21.073c-9.611,0-18.221-2.109-23.032-4.832l3.614-7.611c1.224-2.564,4.316-3.685,6.917-2.491
		c0,0,3.611,1.667,9.299,1.667c5.838,0,9.769-3.093,9.769-7.306c0-4.464-2.77-6.936-10.061-9.428
		c-14.424-4.824-17.642-11.64-17.642-18.584c0-11.4,10.506-20.576,26.247-20.576h0.016H275.679z M556.534,244.883v39.91
		c-6.566,2.972-17.205,4.953-30.771,4.953c-22.729,0-34.41-7.186-34.41-21.066c0-17.231,20.278-22.315,43.9-24.167
		c0-1.705-1.246-5.073-2.745-7.483c0,0-1.899-2.961-7.032-4.084h-23.649l-7.689-0.093c-2.839,0-5.15-2.322-5.15-5.166v-7.222h36.67
		C543.428,220.474,556.534,226.799,556.534,244.883 M535.254,253.439c-13.722,1.101-22.593,3.833-22.593,14.489
		c0,7.816,5.232,11.168,14.277,11.168h3.349c2.745-0.76,4.967-3.702,4.967-6.537V253.439z M467.572,288.505
		c-2.827,0-5.16-2.313-5.16-5.177v-36.131c0-2.833-0.652-7.398-1.473-10.121c0,0-1.306-4.464-10.181-4.464
		c-3.65,0-6.565,0.5-9.622,1.863v48.853c0,1.418,0.021,5.177,0.021,5.177h-5.188h-12.428c-2.844,0-5.162-2.313-5.162-5.177
		l-0.107-92.044h17.697c2.818,0,5.166,2.26,5.166,5.103v22.382c0,2.853,2.231,4.527,4.944,3.741c0,0,5.824-1.667,11.962-1.667
		c19.662,0,25.286,9.66,25.286,20.825v41.66c0,1.383-0.134,5.068-0.134,5.068s-3.556,0.108-5.029,0.108H467.572z M326.036,272.56
		c0,2.835-2.246,5.777-4.97,6.537h-3.346c-9.043,0-14.305-3.352-14.305-11.168c0-10.656,8.9-13.389,22.62-14.489V272.56z
		 M388.529,232.945h25.114v-12.481H384.71c-15.754,0-26.246,9.176-26.246,20.576c0,6.944,3.203,13.76,17.625,18.584
		c7.315,2.492,10.072,4.964,10.072,9.428c0,3.786-3.19,6.639-8.076,7.193H349.14v-31.362c0-18.084-13.118-24.409-30.886-24.419
		h-34.666v12.481h9.212l0.557-0.016l1.028,0.016h23.673c5.152,1.123,7.059,4.084,7.059,4.084c1.5,2.41,2.746,5.778,2.746,7.483
		c-23.648,1.852-43.9,6.936-43.9,24.167c0,13.881,11.642,20.845,34.396,20.845h22.231h37.894c0.361,0.047,0.727,0,1.123,0
		c18.656,0,29.872-9.306,29.872-20.973c0-7.808-3.494-14.123-18.652-19.576c-6.117-2.24-10.048-4.712-10.048-9.177
		C380.779,236.25,383.43,233.371,388.529,232.945"/>
</g>
</svg>
